{
    "asset" : {
        "generator" : "Khronos glTF Blender I/O v1.2.75",
        "version" : "2.0"
    },
    "scene" : 0,
    "scenes" : [
        {
            "name" : "Scene",
            "nodes" : [
                0
            ]
        }
    ],
    "nodes" : [
        {
            "mesh" : 0,
            "name" : "table",
            "rotation" : [
                0,
                0.7026491165161133,
                0,
                0.7115365266799927
            ],
            "scale" : [
                1.2527037858963013,
                0.10369795560836792,
                2.8732969760894775
            ],
            "translation" : [
                0.011979219503700733,
                -0.09680213779211044,
                -0.0024589512031525373
            ]
        }
    ],
    "meshes" : [
        {
            "name" : "Cube",
            "primitives" : [
                {
                    "attributes" : {
                        "POSITION" : 0,
                        "NORMAL" : 1,
                        "TEXCOORD_0" : 2
                    },
                    "indices" : 3
                }
            ]
        }
    ],
    "accessors" : [
        {
            "bufferView" : 0,
            "componentType" : 5126,
            "count" : 1485,
            "max" : [
                1,
                1,
                1
            ],
            "min" : [
                -1,
                -21.716440200805664,
                -1
            ],
            "type" : "VEC3"
        },
        {
            "bufferView" : 1,
            "componentType" : 5126,
            "count" : 1485,
            "type" : "VEC3"
        },
        {
            "bufferView" : 2,
            "componentType" : 5126,
            "count" : 1485,
            "type" : "VEC2"
        },
        {
            "bufferView" : 3,
            "componentType" : 5123,
            "count" : 6660,
            "type" : "SCALAR"
        }
    ],
    "bufferViews" : [
        {
            "buffer" : 0,
            "byteLength" : 17820,
            "byteOffset" : 0
        },
        {
            "buffer" : 0,
            "byteLength" : 17820,
            "byteOffset" : 17820
        },
        {
            "buffer" : 0,
            "byteLength" : 11880,
            "byteOffset" : 35640
        },
        {
            "buffer" : 0,
            "byteLength" : 13320,
            "byteOffset" : 47520
        }
    ],
    "buffers" : [
        {
            "byteLength" : 60840,
            "uri" : "data:application/octet-stream;base64,"
        }
    ]
}
